<mxfile host="Electron" modified="2024-01-08T17:11:07.929Z" agent="Mozilla/5.0 (Windows NT 10.0; Win64; x64) AppleWebKit/537.36 (KHTML, like Gecko) draw.io/21.3.7 Chrome/112.0.5615.204 Electron/24.5.0 Safari/537.36" etag="SCa_ddY7hmpgubFJNMgD" version="21.3.7" type="device">
  <diagram name="Page-1" id="09_XaihCTXI_hehMm9OC">
    <mxGraphModel dx="1434" dy="836" grid="1" gridSize="10" guides="1" tooltips="1" connect="1" arrows="1" fold="1" page="1" pageScale="1" pageWidth="850" pageHeight="1100" math="0" shadow="0">
      <root>
        <mxCell id="0" />
        <mxCell id="1" parent="0" />
        <mxCell id="SexGb3EF2Da3wbemPvOU-6" style="edgeStyle=orthogonalEdgeStyle;rounded=0;orthogonalLoop=1;jettySize=auto;html=1;exitX=1;exitY=0.5;exitDx=0;exitDy=0;entryX=0;entryY=0.5;entryDx=0;entryDy=0;" parent="1" source="SexGb3EF2Da3wbemPvOU-1" target="SexGb3EF2Da3wbemPvOU-2" edge="1">
          <mxGeometry relative="1" as="geometry" />
        </mxCell>
        <mxCell id="SexGb3EF2Da3wbemPvOU-1" value="Initial Data From Chat GPT" style="rounded=0;whiteSpace=wrap;html=1;" parent="1" vertex="1">
          <mxGeometry x="90" y="200" width="120" height="60" as="geometry" />
        </mxCell>
        <mxCell id="SexGb3EF2Da3wbemPvOU-7" style="edgeStyle=orthogonalEdgeStyle;rounded=0;orthogonalLoop=1;jettySize=auto;html=1;exitX=1;exitY=0.5;exitDx=0;exitDy=0;" parent="1" source="SexGb3EF2Da3wbemPvOU-2" target="SexGb3EF2Da3wbemPvOU-3" edge="1">
          <mxGeometry relative="1" as="geometry" />
        </mxCell>
        <mxCell id="SexGb3EF2Da3wbemPvOU-2" value="Replace Numbers&amp;nbsp;&lt;br&gt;with &#39;X&#39;" style="shape=step;perimeter=stepPerimeter;whiteSpace=wrap;html=1;fixedSize=1;" parent="1" vertex="1">
          <mxGeometry x="240" y="190" width="150" height="80" as="geometry" />
        </mxCell>
        <mxCell id="SexGb3EF2Da3wbemPvOU-8" style="edgeStyle=orthogonalEdgeStyle;rounded=0;orthogonalLoop=1;jettySize=auto;html=1;exitX=1;exitY=0.5;exitDx=0;exitDy=0;entryX=0;entryY=0.5;entryDx=0;entryDy=0;" parent="1" source="SexGb3EF2Da3wbemPvOU-3" target="SexGb3EF2Da3wbemPvOU-4" edge="1">
          <mxGeometry relative="1" as="geometry" />
        </mxCell>
        <mxCell id="SexGb3EF2Da3wbemPvOU-3" value="Special Character&lt;br&gt;Removal" style="shape=step;perimeter=stepPerimeter;whiteSpace=wrap;html=1;fixedSize=1;" parent="1" vertex="1">
          <mxGeometry x="410" y="190" width="150" height="80" as="geometry" />
        </mxCell>
        <mxCell id="GSJTcgUQb5a8hrTIKbjt-2" style="edgeStyle=orthogonalEdgeStyle;rounded=0;orthogonalLoop=1;jettySize=auto;html=1;exitX=1;exitY=0.5;exitDx=0;exitDy=0;entryX=0;entryY=0.5;entryDx=0;entryDy=0;" parent="1" source="SexGb3EF2Da3wbemPvOU-4" target="GSJTcgUQb5a8hrTIKbjt-1" edge="1">
          <mxGeometry relative="1" as="geometry" />
        </mxCell>
        <mxCell id="SexGb3EF2Da3wbemPvOU-4" value="Tokenization" style="shape=step;perimeter=stepPerimeter;whiteSpace=wrap;html=1;fixedSize=1;" parent="1" vertex="1">
          <mxGeometry x="580" y="190" width="150" height="80" as="geometry" />
        </mxCell>
        <mxCell id="SexGb3EF2Da3wbemPvOU-5" value="Preprocessed Data" style="rounded=0;whiteSpace=wrap;html=1;" parent="1" vertex="1">
          <mxGeometry x="940" y="200" width="120" height="60" as="geometry" />
        </mxCell>
        <mxCell id="GSJTcgUQb5a8hrTIKbjt-3" style="edgeStyle=orthogonalEdgeStyle;rounded=0;orthogonalLoop=1;jettySize=auto;html=1;exitX=1;exitY=0.5;exitDx=0;exitDy=0;entryX=0;entryY=0.5;entryDx=0;entryDy=0;" parent="1" source="GSJTcgUQb5a8hrTIKbjt-1" target="SexGb3EF2Da3wbemPvOU-5" edge="1">
          <mxGeometry relative="1" as="geometry" />
        </mxCell>
        <mxCell id="GSJTcgUQb5a8hrTIKbjt-1" value="Stemming" style="shape=step;perimeter=stepPerimeter;whiteSpace=wrap;html=1;fixedSize=1;" parent="1" vertex="1">
          <mxGeometry x="750" y="190" width="150" height="80" as="geometry" />
        </mxCell>
        <mxCell id="OdjZDM1RIic7qcytQpmU-13" style="edgeStyle=orthogonalEdgeStyle;rounded=0;orthogonalLoop=1;jettySize=auto;html=1;exitX=1;exitY=0.5;exitDx=0;exitDy=0;entryX=0;entryY=0.5;entryDx=0;entryDy=0;" edge="1" parent="1" source="OdjZDM1RIic7qcytQpmU-1" target="OdjZDM1RIic7qcytQpmU-4">
          <mxGeometry relative="1" as="geometry" />
        </mxCell>
        <mxCell id="OdjZDM1RIic7qcytQpmU-1" value="Initally Preprocessed&amp;nbsp;&lt;br&gt;Data" style="rounded=0;whiteSpace=wrap;html=1;" vertex="1" parent="1">
          <mxGeometry x="100" y="410" width="120" height="60" as="geometry" />
        </mxCell>
        <mxCell id="OdjZDM1RIic7qcytQpmU-3" style="edgeStyle=orthogonalEdgeStyle;rounded=0;orthogonalLoop=1;jettySize=auto;html=1;exitX=0;exitY=0;exitDx=120;exitDy=50;exitPerimeter=0;" edge="1" parent="1" source="OdjZDM1RIic7qcytQpmU-2" target="OdjZDM1RIic7qcytQpmU-1">
          <mxGeometry relative="1" as="geometry" />
        </mxCell>
        <mxCell id="OdjZDM1RIic7qcytQpmU-2" value="Initial Preprocessing Pipeline" style="shape=cube;whiteSpace=wrap;html=1;boundedLbl=1;backgroundOutline=1;darkOpacity=0.05;darkOpacity2=0.1;" vertex="1" parent="1">
          <mxGeometry x="100" y="290" width="120" height="80" as="geometry" />
        </mxCell>
        <mxCell id="OdjZDM1RIic7qcytQpmU-14" style="edgeStyle=orthogonalEdgeStyle;rounded=0;orthogonalLoop=1;jettySize=auto;html=1;exitX=1;exitY=0.5;exitDx=0;exitDy=0;entryX=0;entryY=0.5;entryDx=0;entryDy=0;" edge="1" parent="1" source="OdjZDM1RIic7qcytQpmU-4" target="OdjZDM1RIic7qcytQpmU-6">
          <mxGeometry relative="1" as="geometry" />
        </mxCell>
        <mxCell id="OdjZDM1RIic7qcytQpmU-4" value="Flatten" style="shape=step;perimeter=stepPerimeter;whiteSpace=wrap;html=1;fixedSize=1;" vertex="1" parent="1">
          <mxGeometry x="260" y="400" width="150" height="80" as="geometry" />
        </mxCell>
        <mxCell id="OdjZDM1RIic7qcytQpmU-5" value="Flatten Transformer" style="text;html=1;align=center;verticalAlign=middle;resizable=0;points=[];autosize=1;strokeColor=none;fillColor=none;" vertex="1" parent="1">
          <mxGeometry x="260" y="370" width="130" height="30" as="geometry" />
        </mxCell>
        <mxCell id="OdjZDM1RIic7qcytQpmU-15" style="edgeStyle=orthogonalEdgeStyle;rounded=0;orthogonalLoop=1;jettySize=auto;html=1;exitX=1;exitY=0.5;exitDx=0;exitDy=0;" edge="1" parent="1" source="OdjZDM1RIic7qcytQpmU-6" target="OdjZDM1RIic7qcytQpmU-7">
          <mxGeometry relative="1" as="geometry" />
        </mxCell>
        <mxCell id="OdjZDM1RIic7qcytQpmU-6" value="Term Frequency&amp;nbsp;" style="shape=step;perimeter=stepPerimeter;whiteSpace=wrap;html=1;fixedSize=1;" vertex="1" parent="1">
          <mxGeometry x="450" y="400" width="150" height="80" as="geometry" />
        </mxCell>
        <mxCell id="OdjZDM1RIic7qcytQpmU-16" style="edgeStyle=orthogonalEdgeStyle;rounded=0;orthogonalLoop=1;jettySize=auto;html=1;exitX=1;exitY=0.5;exitDx=0;exitDy=0;" edge="1" parent="1" source="OdjZDM1RIic7qcytQpmU-7" target="OdjZDM1RIic7qcytQpmU-10">
          <mxGeometry relative="1" as="geometry" />
        </mxCell>
        <mxCell id="OdjZDM1RIic7qcytQpmU-7" value="Inverse Document&lt;br&gt;Frequency" style="shape=step;perimeter=stepPerimeter;whiteSpace=wrap;html=1;fixedSize=1;" vertex="1" parent="1">
          <mxGeometry x="640" y="400" width="150" height="80" as="geometry" />
        </mxCell>
        <mxCell id="OdjZDM1RIic7qcytQpmU-8" value="HashingTF Transformer" style="text;html=1;align=center;verticalAlign=middle;resizable=0;points=[];autosize=1;strokeColor=none;fillColor=none;" vertex="1" parent="1">
          <mxGeometry x="440" y="370" width="150" height="30" as="geometry" />
        </mxCell>
        <mxCell id="OdjZDM1RIic7qcytQpmU-9" value="IDF Transformer" style="text;html=1;align=center;verticalAlign=middle;resizable=0;points=[];autosize=1;strokeColor=none;fillColor=none;" vertex="1" parent="1">
          <mxGeometry x="650" y="370" width="110" height="30" as="geometry" />
        </mxCell>
        <mxCell id="OdjZDM1RIic7qcytQpmU-17" style="edgeStyle=orthogonalEdgeStyle;rounded=0;orthogonalLoop=1;jettySize=auto;html=1;exitX=1;exitY=0.5;exitDx=0;exitDy=0;" edge="1" parent="1" source="OdjZDM1RIic7qcytQpmU-10" target="OdjZDM1RIic7qcytQpmU-12">
          <mxGeometry relative="1" as="geometry" />
        </mxCell>
        <mxCell id="OdjZDM1RIic7qcytQpmU-10" value="Vector Assembly" style="shape=step;perimeter=stepPerimeter;whiteSpace=wrap;html=1;fixedSize=1;" vertex="1" parent="1">
          <mxGeometry x="820" y="400" width="150" height="80" as="geometry" />
        </mxCell>
        <mxCell id="OdjZDM1RIic7qcytQpmU-11" value="VectorAssembler Transformer" style="text;html=1;align=center;verticalAlign=middle;resizable=0;points=[];autosize=1;strokeColor=none;fillColor=none;" vertex="1" parent="1">
          <mxGeometry x="805" y="370" width="180" height="30" as="geometry" />
        </mxCell>
        <mxCell id="OdjZDM1RIic7qcytQpmU-12" value="Final Training Data" style="rounded=0;whiteSpace=wrap;html=1;" vertex="1" parent="1">
          <mxGeometry x="1010" y="410" width="120" height="60" as="geometry" />
        </mxCell>
      </root>
    </mxGraphModel>
  </diagram>
</mxfile>
